<svg data-v-0dd9719b="" version="1.0" xmlns="http://www.w3.org/2000/svg" xmlns:xlink="http://www.w3.org/1999/xlink" width="100%" height="100%" viewBox="0 0 340.000000 250.000000" preserveAspectRatio="xMidYMid meet" color-interpolation-filters="sRGB" style="margin: auto;"> <rect data-v-0dd9719b="" x="0" y="0" width="100%" height="100%" fill="#FFFFFF" fill-opacity="1" class="background"></rect> <rect data-v-0dd9719b="" x="0" y="0" width="100%" height="100%" fill="url(#watermark)" fill-opacity="1" class="watermarklayer"></rect> <g data-v-0dd9719b="" fill="#F1C232" class="linesvg" transform="translate(68.81999969482422,78.11000061035156)"><polyline stroke="#F1C232" stroke-width="3" fill-opacity="0" points="0,26.167499542236328 0,0 26.167499542236328,0"></polyline> <polyline stroke="#F1C232" stroke-width="3" fill-opacity="0" points="176.19250106811523,93.77999877929688 202.36000061035156,93.77999877929688 202.36000061035156,67.61249923706055"></polyline> <polyline stroke="#F1C232" stroke-width="3" fill-opacity="0" points="202.36000061035156,26.167499542236328 202.36000061035156,0 176.19250106811523,0"></polyline> <polyline stroke="#F1C232" stroke-width="3" fill-opacity="0" points="26.167499542236328,93.77999877929688 0,93.77999877929688 0,67.61249923706055"></polyline> <g fill="#F1C232" transform="translate(12,12)"><g data-gra="path-name" fill-rule="" class="tp-name"><g transform="scale(1)"><g><path d="M27.45-24.78L24.18-24.78 23.96-27.04Q23.73-28.89 22.83-29.71 21.92-30.53 20.48-30.53L20.48-30.53 13.04-30.53 13.04-17.77 24.14-17.77 24.14-15 13.04-15 13.04-5.53Q13.04-4.52 13.23-3.93 13.43-3.33 13.75-3.01 14.07-2.69 14.52-2.59 14.98-2.49 15.48-2.49L15.48-2.49 18.38-2.49 18.38 0 1.3 0 1.3-2.49 3.27-2.49Q3.77-2.49 4.2-2.58 4.64-2.67 4.97-2.96 5.3-3.24 5.48-3.8 5.66-4.36 5.66-5.28L5.66-5.28 5.66-28.07Q5.66-29 5.48-29.56 5.3-30.12 4.97-30.42 4.64-30.72 4.2-30.82 3.77-30.92 3.27-30.92L3.27-30.92 1.3-30.92 1.3-33.39 27.22-33.39 27.45-24.78ZM46.5 0L30.35 0 30.35-2.49 32.31-2.49Q32.84-2.49 33.27-2.59 33.71-2.69 34.03-3.01 34.35-3.33 34.53-3.93 34.71-4.52 34.71-5.53L34.71-5.53 34.71-27.86Q34.71-28.87 34.53-29.46 34.35-30.05 34.03-30.37 33.71-30.69 33.27-30.8 32.84-30.9 32.31-30.9L32.31-30.9 30.35-30.9 30.35-33.39 46.5-33.39 46.5-30.9 44.53-30.9Q44.03-30.9 43.58-30.8 43.14-30.69 42.82-30.37 42.5-30.05 42.32-29.46 42.13-28.87 42.13-27.86L42.13-27.86 42.13-5.53Q42.13-4.52 42.32-3.93 42.5-3.33 42.82-3.01 43.14-2.69 43.58-2.59 44.03-2.49 44.53-2.49L44.53-2.49 46.5-2.49 46.5 0ZM66.77-30.53L66.77-5.53Q66.77-4.52 66.96-3.93 67.14-3.33 67.47-3.01 67.8-2.69 68.24-2.59 68.67-2.49 69.17-2.49L69.17-2.49 71.14-2.49 71.14 0 54.99 0 54.99-2.49 56.96-2.49Q57.48-2.49 57.91-2.59 58.35-2.69 58.67-3.01 58.99-3.33 59.17-3.93 59.35-4.52 59.35-5.53L59.35-5.53 59.35-30.53 55.61-30.53Q54.56-30.53 53.85-30.3 53.14-30.08 52.7-29.65 52.25-29.23 52.03-28.61 51.82-28 51.73-27.22L51.73-27.22 51.41-24.32 48.25-24.32 48.51-33.39 77.65-33.39 77.87-24.32 74.74-24.32 74.4-27.22Q74.31-28 74.09-28.61 73.88-29.23 73.43-29.65 72.99-30.08 72.28-30.3 71.57-30.53 70.52-30.53L70.52-30.53 66.77-30.53Z" transform="translate(-1.2999999523162842, 33.38999938964844)"></path></g> <!----> <!----> <!----> <!----> <!----> <!----> <g data-gra="path-name-1" fill="#F1C232" transform="translate(0,36.38999938964844)"><g transform="scale(1)"><path d="M18.61-31.06L10.94-31.06 10.94-17.54 22.22-17.54 22.22-15.26 10.94-15.26 10.94-5.32Q10.94-4.22 11.25-3.56 11.56-2.9 12.07-2.55 12.58-2.19 13.29-2.08 14-1.96 14.78-1.96L14.78-1.96 16.33-1.96 16.33 0 1.78 0 1.78-1.96 2.38-1.96Q3.15-1.96 3.85-2.07 4.54-2.17 5.07-2.49 5.6-2.81 5.9-3.44 6.21-4.06 6.21-5.09L6.21-5.09 6.21-28.25Q6.21-29.28 5.9-29.9 5.6-30.53 5.07-30.88 4.54-31.22 3.85-31.32 3.15-31.42 2.38-31.42L2.38-31.42 1.78-31.42 1.78-33.39 25.35-33.39 25.58-25.21 23.16-25.21 22.93-27.22Q22.84-28.02 22.56-28.72 22.29-29.41 21.77-29.93 21.26-30.44 20.48-30.75 19.71-31.06 18.61-31.06L18.61-31.06ZM47.09-15.85L53.51-5.71Q54.69-3.84 55.81-2.9 56.93-1.96 58.42-1.96L58.42-1.96 58.55-1.96 58.55 0 57.89 0Q55.7 0 54.29-0.16 52.89-0.32 51.91-0.78 50.93-1.23 50.23-2.06 49.53-2.88 48.73-4.2L48.73-4.2 42.41-14.73 38.53-14.73 38.53-5.09Q38.53-4.06 38.83-3.44 39.14-2.81 39.67-2.49 40.19-2.17 40.89-2.07 41.59-1.96 42.36-1.96L42.36-1.96 42.98-1.96 42.98 0 29.37 0 29.37-1.96 29.96-1.96Q30.74-1.96 31.43-2.07 32.13-2.17 32.66-2.49 33.18-2.81 33.49-3.44 33.8-4.06 33.8-5.09L33.8-5.09 33.8-28.25Q33.8-29.28 33.49-29.9 33.18-30.53 32.66-30.88 32.13-31.22 31.43-31.32 30.74-31.42 29.96-31.42L29.96-31.42 29.37-31.42 29.37-33.39 41.95-33.39Q48.03-33.39 50.99-31.14 53.96-28.89 53.96-24.37L53.96-24.37Q53.96-22.49 53.36-21.09 52.75-19.69 51.77-18.66 50.79-17.63 49.56-16.94 48.32-16.26 47.09-15.85L47.09-15.85ZM38.53-31.15L38.53-16.92 41.81-16.92Q43.87-16.92 45.24-17.38 46.61-17.84 47.43-18.75 48.25-19.66 48.61-21.03 48.96-22.4 48.96-24.23L48.96-24.23Q48.96-26.1 48.57-27.42 48.19-28.73 47.32-29.56 46.45-30.4 45.07-30.77 43.69-31.15 41.7-31.15L41.7-31.15 38.53-31.15ZM69.2-16.33L69.2-2.33 78.22-2.33Q79.34-2.33 80.12-2.64 80.91-2.95 81.44-3.47 81.96-4 82.26-4.69 82.56-5.39 82.67-6.17L82.67-6.17 82.99-8.18 85.43-8.18 85.11 0 60.04 0 60.04-1.96 60.63-1.96Q61.41-1.96 62.1-2.07 62.8-2.17 63.33-2.49 63.85-2.81 64.16-3.44 64.47-4.06 64.47-5.09L64.47-5.09 64.47-28.07Q64.47-29.16 64.17-29.82 63.87-30.49 63.35-30.84 62.82-31.2 62.13-31.31 61.43-31.42 60.63-31.42L60.63-31.42 60.04-31.42 60.04-33.39 83.61-33.39 83.83-25.21 81.41-25.21 81.18-27.22Q81.09-28 80.83-28.69 80.57-29.39 80.08-29.92 79.59-30.44 78.84-30.75 78.1-31.06 77.05-31.06L77.05-31.06 69.2-31.06 69.2-18.61 80.48-18.61 80.48-16.33 69.2-16.33ZM117.34 0L114 0 96.46-26.95 96.46-5.32Q96.46-4.22 96.77-3.56 97.08-2.9 97.59-2.55 98.11-2.19 98.82-2.08 99.52-1.96 100.3-1.96L100.3-1.96 100.92-1.96 100.92 0 89.18 0 89.18-1.96 89.77-1.96Q90.57-1.96 91.27-2.08 91.96-2.19 92.49-2.55 93.01-2.9 93.31-3.56 93.61-4.22 93.61-5.32L93.61-5.32 93.61-28.25Q93.61-29.28 93.3-29.9 92.99-30.53 92.47-30.88 91.94-31.22 91.24-31.32 90.55-31.42 89.77-31.42L89.77-31.42 89.18-31.42 89.18-33.39 97.74-33.39 114.48-7.54 114.48-28.25Q114.48-29.28 114.17-29.9 113.86-30.53 113.34-30.88 112.81-31.22 112.12-31.32 111.42-31.42 110.64-31.42L110.64-31.42 110.03-31.42 110.03-33.39 121.77-33.39 121.77-31.42 121.17-31.42Q120.37-31.42 119.68-31.31 118.98-31.2 118.45-30.84 117.93-30.49 117.63-29.82 117.34-29.16 117.34-28.07L117.34-28.07 117.34 0ZM148.07-33.39L148.07-31.47 130.49-2.33 142.27-2.33Q143.32-2.33 144.03-2.64 144.74-2.95 145.17-3.47 145.61-4 145.84-4.69 146.06-5.39 146.16-6.17L146.16-6.17 146.38-8.18 148.8-8.18 148.58 0 124.78 0 124.78-1.87 142.32-31.06 132.16-31.06Q131.13-31.06 130.43-30.75 129.74-30.44 129.3-29.92 128.87-29.39 128.64-28.69 128.41-28 128.32-27.22L128.32-27.22 128.09-25.21 125.67-25.21 125.9-33.39 148.07-33.39ZM172.76 0L158.21 0 158.21-1.96 159.29-1.96Q160.06-1.96 160.76-2.07 161.46-2.17 161.98-2.49 162.51-2.81 162.82-3.44 163.12-4.06 163.12-5.09L163.12-5.09 163.12-13.93 154.47-28.96Q154.08-29.62 153.74-30.09 153.4-30.56 153.02-30.85 152.64-31.15 152.18-31.29 151.73-31.42 151.13-31.42L151.13-31.42 150.54-31.42 150.54-33.39 163.4-33.39 163.4-31.42 161.66-31.42Q161.02-31.42 160.62-31.31 160.22-31.2 159.99-30.99 159.77-30.78 159.69-30.51 159.61-30.24 159.61-29.94L159.61-29.94Q159.61-29.28 159.89-28.61 160.18-27.95 160.45-27.45L160.45-27.45 163.9-21.19Q164.72-19.75 165.29-18.35 165.86-16.94 166.25-15.85L166.25-15.85Q166.46-16.35 166.77-16.97 167.07-17.58 167.45-18.28 167.83-18.98 168.24-19.72 168.65-20.46 169.06-21.19L169.06-21.19 172.05-26.56Q172.51-27.36 172.7-28.08 172.9-28.8 172.9-29.37L172.9-29.37Q172.9-30.4 172.17-30.91 171.44-31.42 170.09-31.42L170.09-31.42 168.72-31.42 168.72-33.39 180.14-33.39 180.14-31.42 179.59-31.42Q179.09-31.42 178.64-31.25 178.2-31.08 177.74-30.66 177.28-30.24 176.79-29.54 176.3-28.84 175.71-27.79L175.71-27.79 167.85-13.93 167.85-5.32Q167.85-4.22 168.15-3.56 168.44-2.9 168.97-2.55 169.5-2.19 170.19-2.08 170.89-1.96 171.66-1.96L171.66-1.96 172.76-1.96 172.76 0Z" transform="translate(-1.7799999713897705, 33.38999938964844)"></path></g></g></g></g> <!----></g></g><defs v-gra="od"></defs></svg>